<svg width="512" height="512" viewBox="0 0 200 200" xmlns="http://www.w3.org/2000/svg">
  <defs>
    <linearGradient id="grad1" x1="0%" y1="100%" x2="100%" y2="0%">
      <stop offset="0%" stop-color="#3b82f6"/>
      <stop offset="100%" stop-color="#8b5cf6"/>
    </linearGradient>
    <linearGradient id="hrGrad" x1="0%" y1="0%" x2="100%" y2="100%">
      <stop offset="0%" stop-color="#8b5cf6"/>
      <stop offset="100%" stop-color="#6366f1"/>
    </linearGradient>
    <radialGradient id="bgGrad" cx="60%" cy="35%">
      <stop offset="0%" stop-color="#0e1628"/>
      <stop offset="100%" stop-color="#07090f"/>
    </radialGradient>
    <filter id="softGlow">
      <feGaussianBlur stdDeviation="2" result="b"/>
      <feMerge><feMergeNode in="b"/><feMergeNode in="SourceGraphic"/></feMerge>
    </filter>
    <filter id="subtleGlow">
      <feGaussianBlur stdDeviation="4" result="b"/>
      <feMerge><feMergeNode in="b"/><feMergeNode in="SourceGraphic"/></feMerge>
    </filter>
  </defs>
  <rect width="200" height="200" rx="36" fill="url(#bgGrad)"/>
  <path d="M 52 148 Q 80 90 148 48" fill="none" stroke="url(#grad1)" stroke-width="2" stroke-dasharray="5,5" opacity="0.55" stroke-linecap="round"/>
  <rect x="24" y="116" width="52" height="64" rx="6" fill="#1e3a5f" opacity="0.4"/>
  <rect x="22" y="114" width="52" height="64" rx="6" fill="#0f172a" stroke="#2563eb" stroke-width="1.5"/>
  <path d="M 60 114 L 74 128 L 60 128 Z" fill="#1e3a5f"/>
  <path d="M 60 114 L 74 128" stroke="#2563eb" stroke-width="1.5"/>
  <line x1="30" y1="135" x2="57" y2="135" stroke="#3b82f6" stroke-width="2" stroke-linecap="round" opacity="0.9"/>
  <line x1="30" y1="143" x2="62" y2="143" stroke="#60a5fa" stroke-width="1.5" stroke-linecap="round" opacity="0.6"/>
  <line x1="30" y1="151" x2="55" y2="151" stroke="#60a5fa" stroke-width="1.5" stroke-linecap="round" opacity="0.6"/>
  <line x1="30" y1="159" x2="60" y2="159" stroke="#60a5fa" stroke-width="1.5" stroke-linecap="round" opacity="0.4"/>
  <line x1="30" y1="167" x2="50" y2="167" stroke="#60a5fa" stroke-width="1.5" stroke-linecap="round" opacity="0.4"/>
  <rect x="30" y="120" width="24" height="10" rx="2" fill="#3b82f6" opacity="0.8"/>
  <g transform="translate(102,96) rotate(-38)">
    <polygon points="0,-18 16,10 0,5 -16,10" fill="url(#grad1)" filter="url(#softGlow)"/>
    <polygon points="0,5 -16,10 -2,0" fill="#1d4ed8" opacity="0.6"/>
    <line x1="0" y1="-18" x2="0" y2="5" stroke="white" stroke-width="0.8" opacity="0.4"/>
  </g>
  <circle cx="152" cy="46" r="26" fill="url(#hrGrad)" opacity="0.12" filter="url(#subtleGlow)"/>
  <circle cx="152" cy="46" r="20" fill="url(#hrGrad)" opacity="0.18"/>
  <circle cx="152" cy="38" r="10" fill="url(#hrGrad)" filter="url(#softGlow)"/>
  <path d="M 130 66 Q 130 52 152 52 Q 174 52 174 66" fill="url(#hrGrad)" opacity="0.9" filter="url(#softGlow)"/>
  <path d="M 146 52 L 152 58 L 158 52" fill="none" stroke="white" stroke-width="1.2" opacity="0.5" stroke-linecap="round" stroke-linejoin="round"/>
  <circle cx="168" cy="26" r="10" fill="#10b981" filter="url(#softGlow)"/>
  <polyline points="163,26 167,30 174,22" fill="none" stroke="white" stroke-width="2" stroke-linecap="round" stroke-linejoin="round"/>
</svg>